<?xml version="1.0" encoding="utf-8"?>
<!-- Generator: Adobe Illustrator 22.0.1, SVG Export Plug-In . SVG Version: 6.00 Build 0)  -->
<svg version="1.1" id="レイヤー_1" xmlns="http://www.w3.org/2000/svg" xmlns:xlink="http://www.w3.org/1999/xlink" x="0px"
	 y="0px" viewBox="0 0 34 57.8" style="enable-background:new 0 0 34 57.8;" xml:space="preserve">
<style type="text/css">
	.st0{fill:#111987;}
	.st1{fill:#078E53;}
</style>
<g>
	<rect x="15.9" y="52.2" class="st0" width="1.8" height="5"/>
	<path class="st0" d="M27.3,28.1c0,0.6-0.2,1.2-0.4,1.7c1-0.8,2-1.8,3-3c2.2-2.8,3.5-6.4,3.5-10.2C33.4,7.4,26,0,16.8,0
		C7.8,0,0.5,7.1,0.2,16c0,0.2-0.1,1.6-0.1,2.7v18.5c0,0,0,0.3,0,0.9c0,0.8,0,1.9,0.1,3.2c0.1,1.9,1.3,3.1,2.9,3.6
		C3.5,45,4,45.1,4.5,45.1c2.4,0,4.2-1.3,4.4-3.7C9,40.1,9,38.9,9,38.2c0-0.6,0-0.9,0-0.9V17.5c0-3.5,1.1-5,1.1-5
		c1.4-2.2,3.9-3.7,6.7-3.7c4.3,0,7.8,3.5,7.8,7.8c0,0.1,0,0.6,0,0.7c-1.3-1.3-3.9-2.6-6.3-2.6c-5.2,0-9.4,4.1-9.4,9.4
		s4.1,9.2,9.3,9.2c0.3,0,0.6,0,1.1,0c-2.3-0.9-3.8-3.2-3.6-5.8c0.3-3.2,3.1-5.6,6.3-5.3C25.2,22.1,27.6,24.9,27.3,28.1z"/>
	<path class="st1" d="M27.9,33c-3.4,0-6.1,2.7-6.1,6.1s2.8,6.1,6.1,6.1c3.4,0,6.1-2.7,6.1-6.1C34,35.8,31.3,33,27.9,33z"/>
	<polyline class="st0" points="9.9,48.4 8.1,48.4 8.1,57.3 9.9,57.3 9.9,48.4 	"/>
	<path class="st0" d="M13.4,53.5"/>
	<rect x="11.7" y="48.4" class="st0" width="1.8" height="8.9"/>
	<polygon class="st0" points="28.3,51 28.3,48.4 26.6,48.4 26.6,50.7 26.6,51.7 26.6,57.3 28.3,57.3 28.3,54.5 	"/>
	<polygon class="st0" points="32.9,48.4 31.2,48.4 31.2,53.5 29.6,52 28.3,53.2 31.2,56 31.2,57.3 32.9,57.3 32.9,57.3 	"/>
	
		<rect x="13.3" y="49.5" transform="matrix(0.7063 -0.7079 0.7079 0.7063 -30.9466 26.1804)" class="st0" width="5.6" height="1.8"/>
	<path class="st0" d="M3.4,50.1c0.7,0.2,1.3,0.9,1.3,1.7c0,0.3-0.1,0.6-0.2,0.9c-0.3,0.5-1,0.9-1.5,0.9l0,0l2.4,4.2L7,56.9l-1.6-2.8
		l0,0c0.6-0.5,1.1-1.4,1.1-2.3s-0.4-1.7-1-2.3c-0.1-0.1-0.3-0.3-0.4-0.4c0,0-0.6-0.5-1.5-0.6c-0.7-0.1-1.2-0.1-1.6-0.1H0.1V50h1.8
		C3.2,50,3.4,50.1,3.4,50.1"/>
	<polyline class="st0" points="0,54.2 0,51.4 1.8,51.4 1.8,57.3 0,57.3 0,54.2 	"/>
	<rect x="19.4" y="48.4" class="st0" width="5.4" height="1.7"/>
	<rect x="19.4" y="55.6" class="st0" width="5.4" height="1.7"/>
	<rect x="19.4" y="52" class="st0" width="5.4" height="1.7"/>
</g>
</svg>
