<?xml version="1.0" encoding="utf-8"?>
<!-- Generator: Adobe Illustrator 26.0.3, SVG Export Plug-In . SVG Version: 6.00 Build 0)  -->
<svg version="1.1" id="レイヤー_1" xmlns="http://www.w3.org/2000/svg" xmlns:xlink="http://www.w3.org/1999/xlink" x="0px"
	 y="0px" viewBox="0 0 510.1 90.9" style="enable-background:new 0 0 510.1 90.9;" xml:space="preserve">
<style type="text/css">
	.st0{enable-background:new    ;}
	.st1{fill:#616161;}
	.st2{clip-path:url(#SVGID_00000103243641234907556700000007715930204873100930_);}
	.st3{fill:#FFFFFF;}
	.st4{fill:#399D26;}
	.st5{fill:#DD0429;}
	.st6{fill:#F8AD00;}
	.st7{fill:#0092E5;}
	.st8{clip-path:url(#SVGID_00000111158147521606203200000017603130005780803730_);}
	.st9{fill:#62237C;}
</style>
<g id="グループ_120" transform="translate(-392.92 -780)">
	<g class="st0">
		<path class="st1" d="M480,796.4c-1.3,0.4-2.7,0.9-3.7,1.2l-0.2-0.9c0.4-0.1,1-0.3,1.6-0.5V793h-1.4v-0.8h1.4v-2.6h-1.5v-0.8h3.7
			v0.8h-1.4v2.6h1.2v0.8h-1.2v3l1.3-0.4L480,796.4z M487.1,797.7v0.8h-7.7v-0.8h3.6v-1.6h-2.7v-0.8h2.7v-1.4h-2.6v-5.3h6.1v5.3h-2.6
			v1.4h2.8v0.8h-2.8v1.6H487.1z M481.3,790.8h1.8v-1.5h-1.8V790.8z M481.3,793.1h1.8v-1.5h-1.8V793.1z M485.7,789.3h-1.8v1.5h1.8
			V789.3z M485.7,791.5h-1.8v1.5h1.8V791.5z"/>
		<path class="st1" d="M492.2,788.4c-0.4,0.9-0.8,1.7-1.3,2.5v8H490v-6.7c-0.5,0.6-1,1.2-1.6,1.7c-0.1-0.2-0.4-0.7-0.5-0.9
			c1.4-1.1,2.7-3,3.5-4.8L492.2,788.4z M497.4,797.9c0.7,0,0.8-0.4,0.9-2.2c0.2,0.2,0.6,0.3,0.9,0.4c-0.1,1.9-0.4,2.6-1.6,2.6H495
			c-1.2,0-1.6-0.4-1.6-1.7v-8.8h0.9v4.5c1.3-0.7,2.7-1.7,3.6-2.5l0.6,0.8c-1.1,0.9-2.7,1.8-4.2,2.6v3.5c0,0.7,0.1,0.8,0.8,0.8H497.4
			z"/>
		<path class="st1" d="M510.9,795.5H506v2.3c0,0.5-0.1,0.8-0.6,0.9c-0.4,0.1-1.1,0.1-2.2,0.1c-0.1-0.3-0.2-0.6-0.4-0.9
			c0.9,0,1.7,0,2,0c0.3,0,0.3-0.1,0.3-0.3v-2.3h-4.8v-0.8h4.8v-0.9h0.5c0.6-0.3,1.2-0.7,1.7-1.1h-5V792h5.9l0.2,0l0.6,0.4
			c-0.7,0.8-1.9,1.5-2.9,2v0.3h4.8V795.5z M501.4,792.6h-0.9V790h1.8c-0.2-0.4-0.6-1.1-1-1.5l0.7-0.3c0.4,0.5,0.9,1.2,1.2,1.6
			l-0.4,0.2h2.4c-0.1-0.5-0.5-1.2-0.9-1.8l0.8-0.3c0.4,0.6,0.8,1.3,1,1.8l-0.5,0.2h2.1c0.5-0.6,1-1.3,1.3-1.9l0.9,0.3
			c-0.4,0.5-0.8,1.1-1.2,1.6h1.9v2.7h-0.9v-1.9h-8.4V792.6z"/>
		<path class="st1" d="M512.2,788.6h4.2v0.8h-1.9c-0.2,1-0.4,2-0.7,2.8h2.4v5.1h-2.4v1H513v-4.3c-0.2,0.3-0.4,0.7-0.6,1
			c-0.1-0.2-0.3-0.7-0.4-0.9c0.8-1.1,1.4-2.8,1.7-4.6h-1.5V788.6z M515.4,793.1h-1.6v3.5h1.6V793.1z M523,793.8h-1.3v5.2h-0.9v-5.2
			h-2c0,1.8-0.3,3.8-1.7,5.2c-0.1-0.2-0.5-0.4-0.7-0.5c1.2-1.3,1.5-3.1,1.5-4.7h-1.3v-0.9h1.3v-3.4h-1v-0.8h5.7v0.8h-1.1v3.4h1.3
			V793.8z M520.8,792.9v-3.4h-1.9v3.4H520.8z"/>
		<path class="st1" d="M533.8,798c0.3,0,0.4-0.2,0.4-1.8c0.2,0.2,0.6,0.3,0.8,0.4c-0.1,1.8-0.3,2.3-1.2,2.3h-1.2
			c-0.9,0-1.2-0.3-1.2-1.2v-2.5h-2.3c-0.2,1.4-1.2,2.9-4.5,3.9c-0.1-0.2-0.4-0.5-0.6-0.7c3-0.8,3.9-2,4.1-3.2H525v-0.8h3.4v0v-1.4
			h0.9v1.4v0h3.1v3.4c0,0.3,0,0.4,0.4,0.4H533.8z M528.6,789.9c-0.3,2-1,3.1-3.8,3.7c-0.1-0.2-0.3-0.6-0.5-0.7
			c2.5-0.5,3.1-1.4,3.3-3h-2.2v1.3h-0.9v-2.1h4.6V788h0.9v1.1h4.7v2.1h-0.9v-1.2h-2.5v2.1c0,0.3,0.1,0.3,0.5,0.3h1.5
			c0.3,0,0.4-0.1,0.4-0.9c0.2,0.1,0.5,0.3,0.8,0.3c-0.1,1.1-0.3,1.4-1.1,1.4h-1.7c-1,0-1.3-0.2-1.3-1.1v-2.1H528.6z"/>
		<path class="st1" d="M537.6,794.4c0,1.5-0.2,3.3-1.1,4.5c-0.1-0.1-0.5-0.4-0.7-0.5c0.8-1.3,0.9-3.1,0.9-4.5v-3.2h4.4v3.7H537.6z
			 M541.5,789.4h-5.1v-0.8h5.1V789.4z M537.6,791.5v2.1h2.7v-2.1H537.6z M547.1,792.9h-1.3v6h-0.9v-6h-2.1c0,1.9-0.4,4.3-2,6
			c-0.1-0.2-0.4-0.5-0.7-0.6c1.7-1.8,1.8-4.2,1.8-6v-3.2l0.7,0.2c1.3-0.3,2.6-0.8,3.4-1.2l0.8,0.7c-1.1,0.5-2.6,1-4,1.3v1.9h4.3
			V792.9z"/>
	</g>
	<g id="グループ_110" transform="translate(475.443 806.455)">
		<g>
			<defs>
				<rect id="SVGID_1_" x="0" y="0" width="427.6" height="32.5"/>
			</defs>
			<clipPath id="SVGID_00000128480314430560477640000010134023592712425874_">
				<use xlink:href="#SVGID_1_"  style="overflow:visible;"/>
			</clipPath>
			
				<g id="グループ_109" transform="translate(0 0)" style="clip-path:url(#SVGID_00000128480314430560477640000010134023592712425874_);">
				<path id="パス_45" d="M0,1.3h5.8C10,1.3,12,3.1,12,6.9v1c0,3.3-1.2,4.4-2.4,4.8c1.1,0.5,2.8,1.4,2.8,4.8v2
					c0,4.3-1.8,6.4-6.3,6.4H0V1.3z M5.3,11c1.6,0,2.1-0.5,2.1-2.4V7.3C7.5,5.8,7,5,5.5,5H4.6v6H5.3z M4.6,22.2h0.9
					c1.7,0,2.1-0.8,2.1-2.6v-2.3c0-1.9-0.5-2.7-2.4-2.7H4.6V22.2z"/>
				<path id="パス_46" d="M14.7,6.5h4.7v19.4h-4.7V6.5z M14.7,0.2h4.7v4.3h-4.7V0.2z"/>
				<path id="パス_47" d="M34,12.6v7.3c0,4.3-2.3,6.4-6.2,6.4c-4,0-6.1-2.1-6.1-6.4v-7.5c0-4.3,2.6-6.2,6.1-6.2
					C31.6,6.2,34,8.2,34,12.6 M26.5,12.2v8c0,1.3,0.4,2.1,1.4,2.1s1.4-0.8,1.4-2.2v-8c0-1.2-0.3-2-1.4-2
					C26.9,10.1,26.5,10.9,26.5,12.2"/>
				<rect id="長方形_89" x="36.4" y="0.2" width="4.7" height="25.7"/>
				<path id="パス_48" d="M55.7,12.6v7.3c0,4.3-2.3,6.4-6.2,6.4c-4,0-6.1-2.1-6.1-6.4v-7.5c0-4.3,2.6-6.2,6.1-6.2
					C53.3,6.2,55.7,8.2,55.7,12.6 M48.2,12.2v8c0,1.3,0.4,2.1,1.4,2.1s1.4-0.8,1.4-2.2v-8c0-1.2-0.3-2-1.4-2
					C48.6,10.1,48.2,10.9,48.2,12.2"/>
				<path id="パス_49" d="M70,24.4c0,4.7-0.4,8.2-6.4,8.2c-4.6,0-5.8-2.6-5.8-5.2v-0.1h4.7v0.1c-0.1,0.7,0.4,1.4,1.1,1.5
					c0.1,0,0.1,0,0.2,0c1.3,0,1.5-1,1.5-3.1v-2.2c-0.6,1.2-1.9,2-3.3,1.9c-3.5,0-4.3-2.7-4.3-6V12c0-2.6,0.9-5.8,4.6-5.8
					c1.9,0,2.9,0.8,3.3,2c0-0.6,0.1-1.1,0.2-1.7H70c0,1.2-0.1,3.1-0.1,5.4L70,24.4z M62.4,12.4v6.7c0,1.5,0.4,2.3,1.3,2.3
					c1.2,0,1.5-0.8,1.5-2.7v-6.1c0-1.2-0.1-2.3-1.3-2.3C63,10.3,62.4,10.9,62.4,12.4"/>
				<path id="パス_50" d="M76.4,6.5c0.7,5.1,1.5,11.2,1.7,13.7h0.2c0.3-3.1,0.8-6.8,1.7-13.7h4.8c-0.3,1.1-3.5,16.8-4.2,19.8
					c-1.1,5-2.5,6.2-5.8,6.2c-0.7,0-1.5-0.1-2.2-0.2l0-4c0.1,0,0.7,0.1,1.1,0.1c0.9,0.2,1.8-0.4,1.9-1.3c0-0.1,0-0.2,0-0.3L71.2,6.5
					H76.4z"/>
				<path id="パス_51" d="M102.7,12.6v7.3c0,4.3-2.3,6.4-6.2,6.4c-4,0-6.1-2.1-6.1-6.4v-7.5c0-4.3,2.6-6.2,6.1-6.2
					C100.3,6.2,102.7,8.2,102.7,12.6 M95.2,12.2v8c0,1.3,0.4,2.1,1.4,2.1s1.4-0.8,1.4-2.2v-8c0-1.2-0.3-2-1.4-2
					C95.6,10.1,95.2,10.9,95.2,12.2"/>
				<path id="パス_52" d="M105.6,25.9V10.7h-1.8V6.5h1.8V5.2c0-2.9,1-5.2,4.9-5.2c0.6,0,1.2,0,1.8,0.2V4c-0.2,0-0.4,0-0.7,0
					c-1,0-1.3,0.5-1.3,1.5v0.9h2.1v4.2h-2.1v15.3H105.6z"/>
				<rect id="長方形_90" x="118.9" y="1.3" width="4.7" height="24.6"/>
				<path id="パス_53" d="M126.5,12.3c0-3.5,0-5.1,0-5.8h4.5c0.1,0.5,0.1,1.1,0.2,1.6c0.7-1.3,2.2-2,3.6-1.9c2.6,0,4,1.7,4,5.1
					v14.7H134V12.3c0-1.3-0.4-1.9-1.3-1.9c-1.1,0-1.5,0.6-1.5,2.5v13.1h-4.7L126.5,12.3z"/>
				<path id="パス_54" d="M140.1,6.5h1.9V2.1h4.7v4.4h2.2v4.2h-2.2v10.1c0,0.9,0.1,1.4,1.2,1.4c0.3,0,0.6,0,0.9-0.1v3.7
					c-0.9,0.3-1.8,0.4-2.7,0.4c-2.9,0-4.1-1-4.1-4.4V10.7h-1.9V6.5z"/>
				<path id="パス_55" d="M150.7,13.1c0-3.3,0-4.9-0.1-6.6h4.5c0,0.4,0.1,2,0.1,2.9c0.4-1.9,2.1-3.2,4.1-3.2v5.7
					c-2.3,0-3.9,0.4-3.9,3.7v10.3h-4.7L150.7,13.1z"/>
				<path id="パス_56" d="M172.5,21.5c0,1.7,0,3.6,0.1,4.4h-4.4c-0.1-0.5-0.2-0.9-0.3-1.4c-0.7,1.2-2,1.8-3.3,1.7
					c-3,0-4.1-2.7-4.1-5.7v-0.4c0-5,3.4-6.2,7-6.2h0.3v-2.3c0-1.3-0.2-1.9-1.1-1.9c-0.9,0-1.1,0.6-1.1,1.8v0.5H161v-0.3
					c0-3.4,1.5-5.5,5.9-5.5c3.8,0,5.6,1.8,5.6,5.2L172.5,21.5z M167.8,17.3h-0.4c-1.4,0-2.3,0.6-2.3,2.6v0.2c0,1.3,0.4,2,1.4,2
					c1,0,1.4-0.7,1.4-2.7L167.8,17.3z"/>
				<path id="パス_57" d="M186.4,19.1v0.7c0,3.7-1,6.5-5.8,6.5c-4.6,0-5.7-2.7-5.7-6.9v-6.7c0-3.4,1.3-6.4,5.9-6.4
					c5,0,5.7,3.4,5.7,6v1h-4.6V12c0-1.3-0.2-2-1.1-2c-0.9,0-1.1,0.7-1.1,2v8.5c0,1.1,0.2,2,1.1,2s1.1-0.8,1.1-2.1v-1.3H186.4z"/>
				<path id="パス_58" d="M192.7,17.4v2.8c0,1.2,0.3,2.2,1.4,2.2c1.2,0,1.4-1,1.4-2.2v-0.4h4.6V20c0,2.6-0.8,6.2-5.9,6.2
					c-5,0-6.1-2.8-6.1-6.8v-6.6c0-3.2,1.5-6.6,6.1-6.6c4.1,0,6,2.4,6,6.6v4.6L192.7,17.4z M195.5,14.1v-1.9c0-1.5-0.3-2.2-1.4-2.2
					c-0.9,0-1.4,0.6-1.4,2.2v1.9H195.5z"/>
				<rect id="長方形_91" x="202.3" y="0.2" width="4.7" height="25.7"/>
				<rect id="長方形_92" x="209.8" y="0.2" width="4.7" height="25.7"/>
				<path id="パス_59" d="M229.5,19.8c0,3.2,0,5.1,0.1,6.2H225c-0.1-0.6-0.1-1.1-0.2-1.7c-0.7,1.4-2.2,2.2-3.7,2
					c-1.9,0-3.9-0.9-3.9-5V6.5h4.7v13.6c0,1.4,0.4,2,1.3,2c1.1,0,1.4-0.7,1.4-2.5V6.5h4.7L229.5,19.8z"/>
				<rect id="長方形_93" x="232.3" y="0.2" width="4.7" height="25.7"/>
				<path id="パス_60" d="M251.2,21.5c0,1.7,0,3.6,0.1,4.4h-4.4c-0.1-0.5-0.2-0.9-0.3-1.4c-0.7,1.2-2,1.8-3.3,1.7
					c-3,0-4.1-2.7-4.1-5.7v-0.4c0-5,3.4-6.2,7-6.2h0.3v-2.3c0-1.3-0.2-1.9-1.1-1.9c-0.9,0-1.1,0.6-1.1,1.8v0.5h-4.6v-0.3
					c0-3.4,1.5-5.5,5.9-5.5c3.8,0,5.6,1.8,5.6,5.2V21.5z M246.5,17.3H246c-1.4,0-2.3,0.6-2.3,2.6v0.2c0,1.3,0.4,2,1.4,2
					c1,0,1.4-0.7,1.4-2.7L246.5,17.3z"/>
				<path id="パス_61" d="M253.9,13.1c0-3.3,0-4.9-0.1-6.6h4.5c0,0.4,0.1,2,0.1,2.9c0.4-1.9,2.1-3.2,4.1-3.2v5.7
					c-2.3,0-3.9,0.4-3.9,3.7v10.3h-4.7V13.1z"/>
				<path id="パス_62" d="M278.9,15.1h-5.1v6.7h6l-0.6,4.2h-10.1V1.3h10.1v4.2h-5.3v5.4h5.1V15.1z"/>
				<path id="パス_63" d="M281.4,12.3c0-3.5,0-5.1,0-5.8h4.5c0.1,0.5,0.1,1.1,0.2,1.6c0.7-1.3,2.2-2,3.6-1.9c2.6,0,4,1.7,4,5.1
					v14.7h-4.7V12.3c0-1.3-0.4-1.9-1.3-1.9c-1.1,0-1.5,0.6-1.5,2.5v13.1h-4.7L281.4,12.3z"/>
				<path id="パス_64" d="M300.2,6.5c0.5,4.1,1.3,10.6,1.7,14.4h0.1c0.3-3.9,1.3-10,1.8-14.4h4.7l-3.8,19.4h-5.8l-3.8-19.4H300.2z
					"/>
				<path id="パス_65" d="M310,6.5h4.7v19.4H310V6.5z M310,0.2h4.7v4.3H310V0.2z"/>
				<path id="パス_66" d="M317.5,13.1c0-3.3,0-4.9,0-6.6h4.5c0,0.4,0.1,2,0.1,2.9c0.4-1.9,2.1-3.2,4.1-3.2v5.7
					c-2.3,0-3.9,0.4-3.9,3.7v10.3h-4.7V13.1z"/>
				<path id="パス_67" d="M339.7,12.6v7.3c0,4.3-2.3,6.4-6.2,6.4c-4,0-6.1-2.1-6.1-6.4v-7.5c0-4.3,2.6-6.2,6.1-6.2
					C337.2,6.2,339.7,8.2,339.7,12.6 M332.1,12.2v8c0,1.3,0.4,2.1,1.4,2.1s1.4-0.8,1.4-2.2v-8c0-1.2-0.3-2-1.4-2
					C332.6,10.1,332.1,10.9,332.1,12.2"/>
				<path id="パス_68" d="M342,12.3c0-3.5,0-5.1,0-5.8h4.5c0.1,0.5,0.1,1.1,0.2,1.6c0.7-1.3,2.2-2,3.6-1.9c2.6,0,4,1.7,4,5.1v14.7
					h-4.7V12.3c0-1.3-0.4-1.9-1.3-1.9c-1.1,0-1.5,0.6-1.5,2.5v13.1H342L342,12.3z"/>
				<path id="パス_69" d="M357,12.4c0-4.2,0-5.2,0-5.9h4.5c0.1,0.5,0.1,1.1,0.2,1.6c0.7-1.2,2-1.9,3.4-1.9c1.4-0.1,2.7,0.7,3.2,2
					c0.8-1.3,2.3-2,3.8-2c2.5,0,4,1.6,4,5v14.7h-4.7V12c0-1.1-0.3-1.7-1.1-1.7c-1,0-1.3,0.7-1.3,2.3v13.4h-4.7V12
					c0-1.4-0.4-1.7-1.1-1.7c-1,0-1.3,0.7-1.3,2.2v13.5H357L357,12.4z"/>
				<path id="パス_70" d="M382.9,17.4v2.8c0,1.2,0.3,2.2,1.4,2.2c1.2,0,1.4-1,1.4-2.2v-0.4h4.6V20c0,2.6-0.8,6.2-5.9,6.2
					c-5,0-6.1-2.8-6.1-6.8v-6.6c0-3.2,1.5-6.6,6.1-6.6c4.1,0,6,2.4,6,6.6v4.6L382.9,17.4z M385.7,14.1v-1.9c0-1.5-0.3-2.2-1.4-2.2
					c-0.9,0-1.4,0.6-1.4,2.2v1.9H385.7z"/>
				<path id="パス_71" d="M392.5,12.3c0-3.5,0-5.1,0-5.8h4.5c0.1,0.5,0.1,1.1,0.2,1.6c0.7-1.3,2.2-2,3.6-1.9c2.6,0,4,1.7,4,5.1
					v14.7H400V12.3c0-1.3-0.4-1.9-1.3-1.9c-1.1,0-1.5,0.6-1.5,2.5v13.1h-4.7L392.5,12.3z"/>
				<path id="パス_72" d="M406.1,6.5h1.9V2.1h4.7v4.4h2.2v4.2h-2.2v10.1c0,0.9,0.1,1.4,1.2,1.4c0.3,0,0.6,0,0.9-0.1v3.7
					c-0.9,0.3-1.8,0.4-2.7,0.4c-2.9,0-4.1-1-4.1-4.4V10.7h-1.9L406.1,6.5z"/>
				<path id="パス_73" d="M420.5,19.6v0.9c0,1.1,0.2,2,1.2,2c0.7,0,1.1-0.5,1.1-1.5c0-1.1-0.3-1.8-2.6-3.3
					c-2.9-1.8-4.1-3.2-4.1-6.1c0-3.6,1.9-5.5,5.6-5.5c4.3,0,5.5,2.4,5.5,5.7v0.8h-4.4v-1.2c0-1.2-0.3-1.7-1-1.7s-1,0.5-1,1.4
					c0,0.9,0.4,1.4,2.1,2.4c3.6,2.2,4.7,3.8,4.7,6.7c0,3.8-1.7,5.9-5.9,5.9c-5,0-5.7-3.1-5.7-5.9v-0.7L420.5,19.6z"/>
			</g>
		</g>
	</g>
	<g id="グループ_117" transform="translate(392.92 780)">
		<g id="グループ_118">
			<g id="グループ_115" transform="translate(0 0)">
				<g id="グループ_119">
					<path id="パス_74" d="M57.8,9.9c13.2,13.2,13.2,34.7,0,47.9s-34.7,13.2-47.9,0s-13.2-34.7,0-47.9c0,0,0,0,0,0
						C23.2-3.3,44.6-3.3,57.8,9.9"/>
					<path id="パス_75" class="st3" d="M42.9,24.9c5,5,5,13.1,0,18s-13.1,5-18,0s-5-13.1,0-18c0,0,0,0,0,0
						C29.8,19.9,37.9,19.9,42.9,24.9"/>
					<path id="パス_76" class="st4" d="M24,25.8c4.5,4.5,4.5,11.8,0,16.2s-11.8,4.5-16.2,0s-4.5-11.8,0-16.2c0,0,0,0,0,0
						C12.2,21.3,19.5,21.3,24,25.8"/>
					<path id="パス_77" class="st5" d="M42,7.7c4.5,4.5,4.5,11.8,0,16.2s-11.8,4.5-16.2,0c-4.5-4.5-4.5-11.8,0-16.2
						C30.2,3.2,37.5,3.2,42,7.7"/>
					<path id="パス_78" class="st6" d="M42,43.8c4.5,4.5,4.5,11.8,0,16.2s-11.8,4.5-16.2,0s-4.5-11.8,0-16.2c0,0,0,0,0,0
						C30.2,39.3,37.5,39.3,42,43.8"/>
					<path id="パス_79" class="st7" d="M60,25.8c4.5,4.5,4.5,11.8,0,16.2c-4.5,4.5-11.8,4.5-16.2,0s-4.5-11.8,0-16.2c0,0,0,0,0,0
						C48.3,21.3,55.6,21.3,60,25.8"/>
					<g id="グループ_113" transform="translate(21.125 21.129)">
						<g id="グループ_112">
							<g>
								<defs>
									<rect id="SVGID_00000155109289890456356190000001357774976628438714_" y="0" width="25.5" height="25.5"/>
								</defs>
								<clipPath id="SVGID_00000116935733511064518030000013552889936787591340_">
									<use xlink:href="#SVGID_00000155109289890456356190000001357774976628438714_"  style="overflow:visible;"/>
								</clipPath>
								<g id="グループ_111" style="clip-path:url(#SVGID_00000116935733511064518030000013552889936787591340_);">
									<path id="パス_80" class="st9" d="M21.8,3.7c5,5,5,13.1,0,18s-13.1,5-18,0s-5-13.1,0-18c0,0,0,0,0,0
										C8.7-1.2,16.8-1.2,21.8,3.7"/>
								</g>
							</g>
						</g>
					</g>
					<path id="パス_81" class="st3" d="M54.6,29.3h-5.3l-2.6,4.6l2.6,4.6h5.3l2.6-4.6L54.6,29.3z"/>
					<path id="パス_82" class="st3" d="M38.8,33.9c0,2.7-2.2,4.9-4.9,4.9S29,36.6,29,33.9c0-2.7,2.2-4.9,4.9-4.9
						C36.6,29,38.8,31.2,38.8,33.9L38.8,33.9"/>
					
						<rect id="長方形_96" x="30.4" y="48.5" transform="matrix(0.7071 -0.7071 0.7071 0.7071 -26.8051 39.1687)" class="st3" width="6.9" height="6.9"/>
					<path id="パス_83" class="st3" d="M38.6,19.7h-9.4l1.4-7.8h6.6L38.6,19.7z"/>
					<path id="パス_84" class="st3" d="M15.8,27.7l-5.1,8.9H21L15.8,27.7z"/>
				</g>
			</g>
		</g>
	</g>
</g>
<g>
	<g>
		<path d="M17.5,85.2v-12h5.2c0.6,0,1.1,0.1,1.6,0.2c0.5,0.1,0.8,0.3,1.2,0.6c0.3,0.3,0.6,0.6,0.7,0.9c0.2,0.4,0.3,0.8,0.3,1.2
			c0,0.3-0.1,0.6-0.2,0.9c-0.1,0.3-0.3,0.5-0.5,0.8c-0.2,0.2-0.4,0.4-0.7,0.6c-0.3,0.2-0.6,0.3-0.9,0.3v0.1c0.4,0,0.8,0.1,1.1,0.3
			c0.3,0.2,0.6,0.4,0.9,0.6c0.2,0.3,0.4,0.5,0.6,0.9c0.1,0.3,0.2,0.7,0.2,1.1c0,0.5-0.1,1-0.3,1.4c-0.2,0.4-0.5,0.8-0.8,1.1
			c-0.4,0.3-0.8,0.5-1.3,0.7c-0.5,0.2-1.1,0.2-1.7,0.2H17.5z M20,78.2h1.9c0.7,0,1.2-0.1,1.6-0.4c0.4-0.3,0.5-0.6,0.5-1.1
			c0-0.5-0.2-0.9-0.5-1.1c-0.3-0.3-0.8-0.4-1.4-0.4H20V78.2z M22.2,83.3c0.7,0,1.3-0.1,1.7-0.4c0.4-0.3,0.6-0.7,0.6-1.3
			c0-0.6-0.2-1-0.6-1.3c-0.4-0.3-1-0.4-1.7-0.4H20v3.4H22.2z"/>
		<path d="M32.7,85.2v-12h2.5v12H32.7z"/>
		<path d="M49.4,85.2h-7.9v-12h7.9v2.1H44v2.8h5.1v2H44V83h5.4V85.2z"/>
	</g>
</g>
</svg>
